<svg width="294" height="50" viewBox="0 0 294 50" fill="none" xmlns="http://www.w3.org/2000/svg">
<path d="M18.9258 42.9766C18.6191 42.9921 18.3105 42.999 18 42.999V43C18.3105 43 18.6191 42.9921 18.9258 42.9766ZM20.7412 42.793C20.5921 42.8158 20.4423 42.8364 20.292 42.8555C20.4423 42.8364 20.5921 42.8158 20.7412 42.793ZM23.0537 42.2793C22.885 42.3286 22.7156 42.3765 22.5449 42.4209C22.7156 42.3765 22.885 42.3286 23.0537 42.2793ZM31.3232 37.1025C31.1885 37.2508 31.0507 37.3963 30.9111 37.54C31.0507 37.3963 31.1885 37.2508 31.3232 37.1025ZM24.4053 25.2549C24.3402 25.2549 24.2034 25.2809 23.9951 25.333C23.891 25.359 23.7835 25.39 23.6729 25.4258L22.9893 25.6699C22.8786 25.7057 22.7712 25.7367 22.667 25.7627C22.4587 25.8148 22.3024 25.8669 22.1982 25.9189C22.1982 26.01 22.1461 26.0687 22.042 26.0947C21.9378 26.1208 21.8792 26.1664 21.8662 26.2314L21.9053 26.3877C21.8662 26.4007 21.7751 26.4463 21.6318 26.5244C21.4886 26.6025 21.3323 26.7002 21.1631 26.8174C20.9938 26.9346 20.8441 27.0387 20.7139 27.1299C20.5837 27.221 20.4925 27.2927 20.4404 27.3447C20.2061 27.3447 19.887 27.4229 19.4834 27.5791C19.0798 27.7353 18.637 27.9307 18.1553 28.165C17.6736 28.3994 17.1982 28.6794 16.7295 29.0049C16.2608 29.3304 15.818 29.656 15.4014 29.9814C14.9848 30.3069 14.6657 30.6325 14.4443 30.958C14.2231 31.2834 14.0928 31.57 14.0537 31.8174L14.5254 32.3154C15.6497 32.7504 16.8103 33.0097 17.999 33.0098C21.4452 33.0098 24.6649 30.852 27.4014 28.4473C27.3988 28.4443 27.3961 28.4415 27.3936 28.4385C27.2504 28.2693 27.1396 28.0868 27.0615 27.8916C26.9834 27.6964 26.9378 27.5009 26.9248 27.3057C26.9248 27.1755 26.9509 27.0387 27.0029 26.8955C27.055 26.7523 27.1006 26.6155 27.1396 26.4854L26.7295 26.583C26.5082 26.0753 26.2085 25.7302 25.8311 25.5479C25.4535 25.3656 24.9781 25.2679 24.4053 25.2549ZM18 7C8.06541 7 0.0102501 15.049 0 24.9814C0.00498581 20.0954 1.96935 21.9879 5.15234 25.1582C5.37326 25.1183 5.59979 25.067 5.83105 25.001C6.19548 24.8969 6.52125 24.7404 6.80762 24.5322L6.69043 24.4346C6.8596 24.4736 7.02908 24.5258 7.19824 24.5908C7.36742 24.6559 7.53035 24.7276 7.68652 24.8057C7.84267 24.8837 8.01218 24.9359 8.19434 24.9619C8.37651 24.9879 8.55251 25.014 8.72168 25.04L9.03418 25.001L8.97559 24.8643C9.1578 24.9163 9.35328 24.9815 9.56152 25.0596C9.76974 25.1377 9.97178 25.1767 10.167 25.1768C10.2971 25.1768 10.4862 25.1311 10.7334 25.04C10.9807 24.9489 11.2283 24.8382 11.4756 24.708C11.7229 24.5778 11.9444 24.4345 12.1396 24.2783C12.3349 24.1221 12.4326 23.9723 12.4326 23.8291L12.3936 23.7705C12.4586 23.6924 12.5434 23.6207 12.6475 23.5557C12.7515 23.4906 12.8493 23.4254 12.9404 23.3604C13.0315 23.2953 13.1163 23.2236 13.1943 23.1455C13.2724 23.0674 13.305 22.9762 13.292 22.8721L13.0771 22.6963L13.5264 22.6377L13.6826 22.0518C13.6565 22.1167 13.5979 22.1429 13.5068 22.1299C13.4158 22.1169 13.344 22.0908 13.292 22.0518L13.9951 21.6807L13.5068 20.4307C13.6891 19.7536 13.7347 19.2327 13.6436 18.8682C13.5524 18.5036 13.3766 18.2041 13.1162 17.9697C12.8558 17.7354 12.5693 17.501 12.2568 17.2666C11.9444 17.0322 11.6253 16.7132 11.2998 16.3096L11.3584 16.0752L10.0693 14.5127L9.77637 14.4736C9.41187 14.4736 9.00148 14.4606 8.5459 14.4346C8.09029 14.4085 7.6278 14.3629 7.15918 14.2979C6.69057 14.2328 6.22806 14.1676 5.77246 14.1025C5.31691 14.0374 4.89994 13.9528 4.52246 13.8486C4.93903 13.3539 5.37544 12.885 5.83105 12.4424C6.28668 11.9998 6.77519 11.5764 7.2959 11.1729C7.43906 11.2249 7.61504 11.2966 7.82324 11.3877C8.0315 11.4788 8.23998 11.5961 8.44824 11.7393C8.65653 11.8825 8.81935 12.0388 8.93652 12.208C9.0537 12.3773 9.12532 12.5531 9.15137 12.7354L9.03418 13.1064C9.26848 13.4839 9.52908 13.7184 9.81543 13.8096C10.1018 13.9007 10.395 13.9528 10.6943 13.9658C10.9937 13.9788 11.3064 13.9788 11.6318 13.9658C11.9573 13.9528 12.2699 14.0114 12.5693 14.1416L12.8818 13.4775L12.5889 12.3447L12.9209 11.8564L9.54199 10.8018C9.68518 10.4373 9.91975 10.1637 10.2451 9.98145C10.5706 9.7992 10.9288 9.70805 11.3193 9.70801V9.5127L10.2256 9.33691C11.4364 8.73799 12.6931 8.28222 13.9951 7.96973C15.2971 7.65723 16.6319 7.50098 17.999 7.50098C19.1318 7.50098 20.2517 7.61166 21.3584 7.83301C22.4651 8.05436 23.5329 8.37338 24.5615 8.79004C25.5901 9.20669 26.5863 9.72758 27.5498 10.3525C28.5132 10.9775 29.3923 11.6807 30.1865 12.4619C29.8481 12.4619 29.5876 12.5466 29.4053 12.7158C29.223 12.8851 29.0537 13.0739 28.8975 13.2822C28.7412 13.4905 28.5784 13.6794 28.4092 13.8486C28.24 14.0179 28.0119 14.109 27.7256 14.1221L27.4131 13.8877L27.4521 13.458L26.8076 12.54L27.3154 11.0947C27.2504 11.0557 27.1526 10.9905 27.0225 10.8994C26.8924 10.8083 26.7815 10.7628 26.6904 10.7627C26.2999 10.7627 26.0003 10.7822 25.792 10.8213C25.5837 10.8603 25.4013 10.932 25.2451 11.0361C25.0889 11.1403 24.9521 11.29 24.835 11.4854C24.7178 11.6807 24.5355 11.9281 24.2881 12.2275L23.585 11.6807C23.4548 11.7327 23.2464 11.8174 22.96 11.9346C22.6735 12.0518 22.3805 12.195 22.0811 12.3643C21.7816 12.5335 21.5277 12.7093 21.3193 12.8916C21.111 13.0739 21.0003 13.2432 20.9873 13.3994C20.9873 13.5947 21.059 13.751 21.2021 13.8682C21.3454 13.9853 21.5342 14.083 21.7686 14.1611C22.0029 14.2392 22.2439 14.2979 22.4912 14.3369C22.7386 14.376 22.986 14.4281 23.2334 14.4932C23.4807 14.5583 23.6696 14.6234 23.7998 14.6885C23.9299 14.7536 24.0081 14.8643 24.0342 15.0205L22.9014 15.3916C23.1617 15.6129 23.4418 15.8148 23.7412 15.9971C24.0406 16.1793 24.3533 16.3487 24.6787 16.5049L24.6006 16.8369L26.3975 17.54V18.0869L26.5342 18.1455L26.4365 17.4619L26.5146 17.4424C26.6056 17.4424 26.6579 17.462 26.6709 17.501C26.6839 17.54 26.6904 17.5857 26.6904 17.6377C26.6904 17.6897 26.6774 17.7419 26.6514 17.7939C26.6253 17.846 26.6188 17.8851 26.6318 17.9111L26.8857 17.7744L26.8467 17.8525C26.8466 17.8916 26.8271 17.9503 26.7881 18.0283C26.749 18.1064 26.6969 18.1781 26.6318 18.2432C26.5667 18.3083 26.5146 18.3734 26.4756 18.4385C26.4367 18.5032 26.4105 18.5358 26.3975 18.5361C26.3975 18.5752 26.4236 18.6143 26.4756 18.6533C26.5276 18.6923 26.5929 18.7184 26.6709 18.7314C26.7489 18.7445 26.8011 18.764 26.8271 18.79C26.8529 18.8159 26.8529 18.8224 26.8271 18.8096C26.6449 18.8096 26.6058 18.8226 26.71 18.8486C26.8141 18.8747 26.9771 18.9399 27.1982 19.0439C27.4195 19.1481 27.6215 19.2979 27.8037 19.4932C27.9859 19.6885 28.0902 19.9751 28.1162 20.3525C28.1162 20.5738 28.1097 20.7888 28.0967 20.9971C28.0837 21.2054 28.0902 21.4203 28.1162 21.6416C28.2985 21.1468 28.572 20.7692 28.9365 20.5088C29.3011 20.2484 29.7439 20.1182 30.2646 20.1182L31.1045 20.1963L30.6943 20.4697C30.9156 20.4437 31.1437 20.4176 31.3779 20.3916C31.6122 20.3656 31.8533 20.3591 32.1006 20.3721C32.3478 20.3851 32.5694 20.4372 32.7646 20.5283C32.9598 20.6195 33.1554 20.7563 33.3506 20.9385L33.4678 21.8174C33.4678 22.2339 33.3765 22.5726 33.1943 22.833C33.0121 23.0934 32.6928 23.2301 32.2373 23.2432C31.8468 23.2432 31.4624 23.1845 31.085 23.0674C30.7075 22.9502 30.3361 22.8134 29.9717 22.6572C30.0888 22.9436 30.2191 23.2172 30.3623 23.4775C30.5055 23.7379 30.6097 24.0245 30.6748 24.3369L30.4209 24.4541C30.1085 24.2458 29.8219 24.2133 29.5615 24.3564C29.3011 24.4997 29.0472 24.708 28.7998 24.9814C28.5524 25.2549 28.2985 25.5349 28.0381 25.8213C27.7777 26.1077 27.4977 26.3161 27.1982 26.4463L27.8623 26.7979L29.4248 25.9189C29.4118 25.945 29.3988 26.0036 29.3857 26.0947C29.3727 26.1858 29.3792 26.2054 29.4053 26.1533L30.1084 24.9619C30.4509 24.9512 30.8107 24.9034 31.1885 24.8223C34.1708 21.8622 35.9942 20.2718 35.999 24.9814C35.9888 15.0492 27.9343 7.00032 18 7ZM25.6748 23.126C25.141 23.126 24.6526 23.2171 24.21 23.3994C24.3922 23.4645 24.5746 23.5166 24.7568 23.5557C24.9391 23.5947 25.128 23.6208 25.3232 23.6338C25.5836 23.6338 25.8181 23.6077 26.0264 23.5557C25.9613 23.4516 25.8961 23.3864 25.8311 23.3604C25.766 23.3343 25.7139 23.2561 25.6748 23.126ZM28.3115 22.2471C28.1423 22.2471 27.9534 22.2731 27.7451 22.3252C27.5368 22.3773 27.3284 22.4489 27.1201 22.54C26.9118 22.6312 26.7034 22.7158 26.4951 22.7939C26.2868 22.8721 26.0979 22.9502 25.9287 23.0283L26.2412 23.0674C26.3453 23.0804 26.4561 23.0869 26.5732 23.0869C26.7945 23.0869 26.9965 23.0543 27.1787 22.9893C27.3609 22.9242 27.5303 22.8395 27.6865 22.7354C27.8427 22.6312 27.9991 22.553 28.1553 22.501C28.3114 22.4489 28.4548 22.4098 28.585 22.3838C28.7151 22.3838 28.8324 22.4099 28.9365 22.4619C29.0406 22.514 29.145 22.5727 29.249 22.6377C29.249 22.5856 29.2946 22.5596 29.3857 22.5596C29.2946 22.4685 29.1251 22.3968 28.8779 22.3447C28.6307 22.2927 28.4417 22.2601 28.3115 22.2471ZM4.22949 14.2197C4.2555 14.3368 4.28815 14.4215 4.32715 14.4736C4.36621 14.5257 4.39225 14.6429 4.40527 14.8252C4.40524 14.9423 4.35966 15.0531 4.26855 15.1572C4.17751 15.2612 4.06093 15.3657 3.91797 15.4697C3.77487 15.5738 3.63138 15.652 3.48828 15.7041C3.34523 15.7561 3.22127 15.8018 3.11719 15.8408C3.29944 15.5544 3.48181 15.2809 3.66406 15.0205C3.84624 14.7602 4.0343 14.493 4.22949 14.2197ZM4.46387 13.9268C4.46388 14.0307 4.48354 14.1025 4.52246 14.1416H4.40527C4.35344 14.1416 4.31405 14.1482 4.28809 14.1611L4.46387 13.9268Z" fill="#023047"/>
<path d="M1.28613 22.228C1.11706 22.1751 1.02034 22.1869 0.964844 22.2085C0.912852 22.2288 0.833495 22.2827 0.74707 22.4487C0.5597 22.8086 0.429688 23.5216 0.429688 24.7603C0.429753 34.4638 8.2958 42.3304 17.999 42.3306C27.7024 42.3306 35.5693 34.4639 35.5693 24.7603C35.5693 23.5217 35.4393 22.8086 35.252 22.4487C35.1654 22.2824 35.0852 22.2288 35.0332 22.2085C34.9777 22.187 34.8816 22.1753 34.7129 22.228C34.3528 22.3407 33.8555 22.6826 33.208 23.2495C32.5738 23.8048 31.8477 24.5279 31.0303 25.3423C29.4059 26.9607 27.4421 28.9196 25.2549 30.4712C23.0692 32.0216 20.6127 33.2007 17.999 33.2007C15.3855 33.2006 12.9297 32.0216 10.7441 30.4712C8.55672 28.9195 6.5923 26.9608 4.96777 25.3423C4.15042 24.528 3.42522 23.8048 2.79102 23.2495C2.14364 22.6827 1.64619 22.3407 1.28613 22.228Z" stroke="#023047" stroke-width="0.86"/>
<path d="M26.611 36.915L23.725 34.7347L22.8475 35.2956L25.2449 37.1412L23.1912 38.7425L23.6888 39.3215L26.611 36.915ZM16.822 33.9114L19.2285 40.2624L20.4046 40L17.98 33.5405L16.822 33.9114ZM14.1934 38.7425L12.1398 37.1412L14.5372 35.2956L13.6597 34.7347L10.7737 36.915L13.6958 39.3215L14.1934 38.7425Z" fill="#023047"/>
<path d="M64.849 17.5L63.049 20.1C62.549 19.9333 61.9657 19.7333 61.299 19.5C60.6324 19.2333 60.1157 19.05 59.749 18.95C59.3824 18.8167 58.9824 18.6833 58.549 18.55C58.1157 18.4167 57.749 18.3333 57.449 18.3C57.1824 18.2333 56.9324 18.2 56.699 18.2C54.5324 18.3 52.699 19.7 51.199 22.4C49.7657 25 49.2157 27.6167 49.549 30.25C49.849 32.8833 51.0157 34.35 53.049 34.65C55.4157 34.9833 58.5824 33.6167 62.549 30.55L63.499 31.65C64.1657 32.3833 64.8157 33.1333 65.449 33.9L66.399 35C65.099 35.9667 63.949 36.75 62.949 37.35C61.9824 37.95 60.9824 38.4333 59.949 38.8C58.9157 39.2 57.899 39.3833 56.899 39.35C55.9324 39.35 54.9324 39.15 53.899 38.75C51.0324 37.65 48.3324 35.7167 45.799 32.95C44.299 31.2833 43.4657 29.3167 43.299 27.05C43.1657 24.75 43.5657 22.6167 44.499 20.65C45.4657 18.6833 46.8824 17.0167 48.749 15.65C50.6157 14.25 52.649 13.55 54.849 13.55C55.8824 13.55 59.2157 14.8667 64.849 17.5ZM86.8068 19.15C84.6068 17.65 82.3235 17.8833 79.9568 19.85C77.9902 21.5167 76.6735 23.7333 76.0068 26.5C75.2735 29.6667 75.8402 32.05 77.7068 33.65C77.9402 33.85 78.1902 34.0333 78.4568 34.2C79.7902 34.9333 81.1568 35.1 82.5568 34.7C83.9902 34.3 85.2235 33.4167 86.2568 32.05C87.3235 30.6833 88.1568 29.2333 88.7568 27.7C89.3568 26.1333 89.5068 24.55 89.2068 22.95C88.9068 21.3167 88.1068 20.05 86.8068 19.15ZM91.8068 19.55C92.7735 20.4167 93.5235 21.4667 94.0568 22.7C94.5902 23.9 94.8902 25.1333 94.9568 26.4C95.0568 27.6667 94.9402 28.95 94.6068 30.25C94.3068 31.55 93.8402 32.7667 93.2068 33.9C92.5735 35.0333 91.7735 36.05 90.8068 36.95C89.8735 37.8167 88.8402 38.4667 87.7068 38.9C86.5735 39.3667 85.3068 39.55 83.9068 39.45C82.5402 39.35 81.1402 38.9167 79.7068 38.15C77.8402 37.15 76.0068 35.8833 74.2068 34.35C72.7735 33.1167 71.7068 31.7333 71.0068 30.2C70.3068 28.6333 69.9735 27.1167 70.0068 25.65C70.0735 24.1833 70.3568 22.7167 70.8568 21.25C71.3902 19.7833 72.1402 18.5167 73.1068 17.45C74.1068 16.3833 75.1902 15.4833 76.3568 14.75C77.5235 13.9833 78.7735 13.5833 80.1068 13.55C81.4735 13.5167 82.7902 13.8 84.0568 14.4C87.2902 16.1 89.8735 17.8167 91.8068 19.55ZM107.499 35.45C110.132 36.7833 113.316 36.1333 117.049 33.5V19.45C116.082 18.8833 114.732 18.5 112.999 18.3C111.632 18.1667 110.299 18.8667 108.999 20.4C107.699 21.9 106.716 23.65 106.049 25.65C105.382 27.65 105.132 29.6333 105.299 31.6C105.499 33.5333 106.232 34.8167 107.499 35.45ZM117.049 2.5L123.299 3.9C123.499 26.4 123.499 37.75 123.299 37.95C123.132 37.9833 122.266 38.1667 120.699 38.5C119.166 38.8667 118.182 39.0833 117.749 39.15C117.316 39.2167 116.416 39.3167 115.049 39.45C113.716 39.5833 112.649 39.5833 111.849 39.45C111.082 39.3167 110.116 39.0833 108.949 38.75C107.782 38.45 106.666 38 105.599 37.4C103.699 36.3667 102.232 35.1 101.199 33.6C100.166 32.1 99.6157 30.5667 99.549 29C99.4824 27.4333 99.6657 25.85 100.099 24.25C100.532 22.6167 101.216 21.1333 102.149 19.8C103.116 18.4333 104.132 17.2333 105.199 16.2C106.299 15.1667 107.449 14.4333 108.649 14C109.849 13.5333 110.916 13.45 111.849 13.75C112.282 13.8833 112.732 14.0833 113.199 14.35C113.699 14.5833 114.099 14.8 114.399 15C114.732 15.2 115.182 15.5 115.749 15.9C116.349 16.3 116.782 16.5833 117.049 16.75V2.5ZM134.845 28.05L146.195 20.3C143.795 18.7667 141.745 18.2 140.045 18.6C138.378 19 137.095 20.05 136.195 21.75C135.295 23.4167 134.845 25.5167 134.845 28.05ZM135.995 32.85C136.928 33.9833 137.978 34.6833 139.145 34.95C140.311 35.2167 141.528 35.0667 142.795 34.5C144.095 33.9 145.178 33.3167 146.045 32.75C146.911 32.15 147.928 31.3667 149.095 30.4L150.095 31.4C150.728 32.1 151.361 32.8 151.995 33.5L152.995 34.5C150.095 36.6333 147.645 38.05 145.645 38.75C143.645 39.4833 141.661 39.4833 139.695 38.75C136.828 37.65 134.128 35.7167 131.595 32.95C130.095 31.2833 129.228 29.3167 128.995 27.05C128.761 24.75 129.045 22.6167 129.845 20.65C130.678 18.6833 131.945 17.0167 133.645 15.65C135.378 14.25 137.261 13.55 139.295 13.55C140.628 13.55 142.595 14.4167 145.195 16.15C147.828 17.85 150.011 19.5167 151.745 21.15C151.711 21.25 150.378 22.2833 147.745 24.25C145.145 26.1833 142.528 28.1 139.895 30L135.995 32.85ZM160.881 15.5L167.131 30.65L172.881 14.1L179.131 15.5L185.381 30.65L191.131 14.1L197.381 15.5L189.081 39.45H189.031L182.781 38.05L176.531 23L170.831 39.45H170.781L164.581 38.05H164.531L154.631 14.1L160.881 15.5ZM216.738 19.15C214.538 17.65 212.255 17.8833 209.888 19.85C207.922 21.5167 206.605 23.7333 205.938 26.5C205.205 29.6667 205.772 32.05 207.638 33.65C207.872 33.85 208.122 34.0333 208.388 34.2C209.722 34.9333 211.088 35.1 212.488 34.7C213.922 34.3 215.155 33.4167 216.188 32.05C217.255 30.6833 218.088 29.2333 218.688 27.7C219.288 26.1333 219.438 24.55 219.138 22.95C218.838 21.3167 218.038 20.05 216.738 19.15ZM221.738 19.55C222.705 20.4167 223.455 21.4667 223.988 22.7C224.522 23.9 224.822 25.1333 224.888 26.4C224.988 27.6667 224.872 28.95 224.538 30.25C224.238 31.55 223.772 32.7667 223.138 33.9C222.505 35.0333 221.705 36.05 220.738 36.95C219.805 37.8167 218.772 38.4667 217.638 38.9C216.505 39.3667 215.238 39.55 213.838 39.45C212.472 39.35 211.072 38.9167 209.638 38.15C207.772 37.15 205.938 35.8833 204.138 34.35C202.705 33.1167 201.638 31.7333 200.938 30.2C200.238 28.6333 199.905 27.1167 199.938 25.65C200.005 24.1833 200.288 22.7167 200.788 21.25C201.322 19.7833 202.072 18.5167 203.038 17.45C204.038 16.3833 205.122 15.4833 206.288 14.75C207.455 13.9833 208.705 13.5833 210.038 13.55C211.405 13.5167 212.722 13.8 213.988 14.4C217.222 16.1 219.805 17.8167 221.738 19.55ZM236.631 15.5V19.2C239.064 15.3667 241.131 13.45 242.831 13.45C243.664 13.45 245.064 13.8833 247.031 14.75C248.997 15.5833 250.647 16.45 251.981 17.35L248.531 22.35C246.464 20.8167 244.664 19.9833 243.131 19.85C241.631 19.6833 240.431 19.9833 239.531 20.75C238.631 21.4833 237.664 22.6833 236.631 24.35V39.45L230.381 38.05V14.1L236.631 15.5ZM261.239 3.9V39.45L254.989 38.05V2.5L261.239 3.9ZM274.149 35.45C276.783 36.7833 279.966 36.1333 283.699 33.5V19.45C282.733 18.8833 281.383 18.5 279.649 18.3C278.283 18.1667 276.949 18.8667 275.649 20.4C274.349 21.9 273.366 23.65 272.699 25.65C272.033 27.65 271.783 29.6333 271.949 31.6C272.149 33.5333 272.883 34.8167 274.149 35.45ZM283.699 2.5L289.949 3.9C290.149 26.4 290.149 37.75 289.949 37.95C289.783 37.9833 288.916 38.1667 287.349 38.5C285.816 38.8667 284.833 39.0833 284.399 39.15C283.966 39.2167 283.066 39.3167 281.699 39.45C280.366 39.5833 279.299 39.5833 278.499 39.45C277.733 39.3167 276.766 39.0833 275.599 38.75C274.433 38.45 273.316 38 272.249 37.4C270.349 36.3667 268.883 35.1 267.849 33.6C266.816 32.1 266.266 30.5667 266.199 29C266.133 27.4333 266.316 25.85 266.749 24.25C267.183 22.6167 267.866 21.1333 268.799 19.8C269.766 18.4333 270.783 17.2333 271.849 16.2C272.949 15.1667 274.099 14.4333 275.299 14C276.499 13.5333 277.566 13.45 278.499 13.75C278.933 13.8833 279.383 14.0833 279.849 14.35C280.349 14.5833 280.749 14.8 281.049 15C281.383 15.2 281.833 15.5 282.399 15.9C282.999 16.3 283.433 16.5833 283.699 16.75V2.5Z" fill="#023047"/>
</svg>
