<svg width="44" height="44" viewBox="0 0 44 44" fill="none" xmlns="http://www.w3.org/2000/svg">
<path d="M41.6667 8.6665V35.6665C41.6667 38.9805 32.7127 41.6665 21.6667 41.6665C10.6207 41.6665 1.66669 38.9805 1.66669 35.6665V8.6665" stroke="#023047" stroke-width="3.33333" stroke-linecap="round" stroke-linejoin="round"/>
<path d="M41.6667 26.6665C41.6667 29.9805 32.7127 32.6665 21.6667 32.6665C10.6207 32.6665 1.66669 29.9805 1.66669 26.6665M41.6667 17.6665C41.6667 20.9805 32.7127 23.6665 21.6667 23.6665C10.6207 23.6665 1.66669 20.9805 1.66669 17.6665" stroke="#023047" stroke-width="3.33333" stroke-linecap="round" stroke-linejoin="round"/>
<path d="M21.6667 13.6665C32.7124 13.6665 41.6667 10.9802 41.6667 7.6665C41.6667 4.3528 32.7124 1.6665 21.6667 1.6665C10.621 1.6665 1.66669 4.3528 1.66669 7.6665C1.66669 10.9802 10.621 13.6665 21.6667 13.6665Z" stroke="#023047" stroke-width="3.33333" stroke-linecap="round" stroke-linejoin="round"/>
</svg>
