<svg width="40" height="40" viewBox="0 0 40 40" fill="none" xmlns="http://www.w3.org/2000/svg">
<path d="M36.4531 1.50928H3.55002C2.42302 1.50928 1.5094 2.4229 1.5094 3.5499V36.453C1.5094 37.58 2.42302 38.4937 3.55002 38.4937H36.4531C37.5802 38.4937 38.4938 37.58 38.4938 36.453V3.5499C38.4938 2.4229 37.5802 1.50928 36.4531 1.50928Z" fill="#3D5A98"/>
<path d="M27.025 38.4907V24.1688H31.8312L32.55 18.5875H27.025V15.025C27.025 13.4094 27.475 12.3063 29.7906 12.3063H32.7469V7.30628C31.3153 7.15736 29.8767 7.08642 28.4375 7.09378C24.1812 7.09378 21.25 9.68753 21.25 14.4719V18.5875H16.4437V24.1688H21.25V38.4907H27.025Z" fill="white"/>
</svg>
