<svg width="30" height="20" viewBox="0 0 30 20" fill="none" xmlns="http://www.w3.org/2000/svg">
<path fill-rule="evenodd" clip-rule="evenodd" d="M2.85715 14.9898C3.42547 14.9898 3.97052 15.2156 4.37238 15.6174C4.77424 16.0193 5.00001 16.5644 5.00001 17.1327C5.00001 17.701 4.77424 18.246 4.37238 18.6479C3.97052 19.0498 3.42547 19.2755 2.85715 19.2755C2.28883 19.2755 1.74379 19.0498 1.34192 18.6479C0.940059 18.246 0.714294 17.701 0.714294 17.1327C0.714294 16.5644 0.940059 16.0193 1.34192 15.6174C1.74379 15.2156 2.28883 14.9898 2.85715 14.9898ZM28.57 15.7041C29.36 15.7041 30 16.3384 30 17.1327C30 17.922 29.3643 18.5612 28.57 18.5612H8.57287C8.38504 18.5618 8.19895 18.5253 8.02529 18.4537C7.85163 18.3821 7.69383 18.2769 7.56095 18.1442C7.42807 18.0114 7.32273 17.8537 7.25098 17.6801C7.17923 17.5066 7.14249 17.3205 7.14287 17.1327C7.14287 16.3434 7.77858 15.7041 8.57287 15.7041H28.57ZM2.85715 7.84696C3.42547 7.84696 3.97052 8.07272 4.37238 8.47459C4.77424 8.87645 5.00001 9.4215 5.00001 9.98982C5.00001 10.5581 4.77424 11.1032 4.37238 11.505C3.97052 11.9069 3.42547 12.1327 2.85715 12.1327C2.28883 12.1327 1.74379 11.9069 1.34192 11.505C0.940059 11.1032 0.714294 10.5581 0.714294 9.98982C0.714294 9.4215 0.940059 8.87645 1.34192 8.47459C1.74379 8.07272 2.28883 7.84696 2.85715 7.84696ZM28.57 8.56124C29.36 8.56124 30 9.19553 30 9.98982C30 10.7791 29.3643 11.4184 28.57 11.4184H8.57287C8.38504 11.419 8.19895 11.3824 8.02529 11.3108C7.85163 11.2392 7.69383 11.1341 7.56095 11.0013C7.42807 10.8686 7.32273 10.7109 7.25098 10.5373C7.17923 10.3637 7.14249 10.1776 7.14287 9.98982C7.14287 9.20053 7.77858 8.56124 8.57287 8.56124H28.57ZM2.85715 0.704102C3.42547 0.704102 3.97052 0.929866 4.37238 1.33173C4.77424 1.73359 5.00001 2.27864 5.00001 2.84696C5.00001 3.41528 4.77424 3.96032 4.37238 4.36219C3.97052 4.76405 3.42547 4.98982 2.85715 4.98982C2.28883 4.98982 1.74379 4.76405 1.34192 4.36219C0.940059 3.96032 0.714294 3.41528 0.714294 2.84696C0.714294 2.27864 0.940059 1.73359 1.34192 1.33173C1.74379 0.929866 2.28883 0.704102 2.85715 0.704102ZM28.57 1.41839C29.36 1.41839 30 2.05267 30 2.84696C30 3.63624 29.3643 4.27553 28.57 4.27553H8.57287C8.38504 4.2761 8.19895 4.23954 8.02529 4.16797C7.85163 4.09639 7.69383 3.99121 7.56095 3.85846C7.42807 3.72571 7.32273 3.56801 7.25098 3.39443C7.17923 3.22084 7.14249 3.03479 7.14287 2.84696C7.14287 2.05767 7.77858 1.41839 8.57287 1.41839H28.57Z" fill="#023047"/>
</svg>
