<svg width="80" height="80" viewBox="0 0 80 80" fill="none" xmlns="http://www.w3.org/2000/svg">
<path d="M10 50H25C26.3261 50 27.5979 50.5268 28.5355 51.4645C29.4732 52.4021 30 53.6739 30 55V70C30 71.3261 29.4732 72.5979 28.5355 73.5355C27.5979 74.4732 26.3261 75 25 75H10C8.67392 75 7.40215 74.4732 6.46447 73.5355C5.52678 72.5979 5 71.3261 5 70V55C5 53.6739 5.52678 52.4021 6.46447 51.4645C7.40215 50.5268 8.67392 50 10 50ZM55 5H70C71.3261 5 72.5979 5.52678 73.5355 6.46447C74.4732 7.40215 75 8.67392 75 10V25C75 26.3261 74.4732 27.5979 73.5355 28.5355C72.5979 29.4732 71.3261 30 70 30H55C53.6739 30 52.4021 29.4732 51.4645 28.5355C50.5268 27.5979 50 26.3261 50 25V10C50 8.67392 50.5268 7.40215 51.4645 6.46447C52.4021 5.52678 53.6739 5 55 5ZM55 50C53.6739 50 52.4021 50.5268 51.4645 51.4645C50.5268 52.4021 50 53.6739 50 55V70C50 71.3261 50.5268 72.5979 51.4645 73.5355C52.4021 74.4732 53.6739 75 55 75H70C71.3261 75 72.5979 74.4732 73.5355 73.5355C74.4732 72.5979 75 71.3261 75 70V55C75 53.6739 74.4732 52.4021 73.5355 51.4645C72.5979 50.5268 71.3261 50 70 50H55ZM55 0C52.3478 0 49.8043 1.05357 47.9289 2.92893C46.0536 4.8043 45 7.34784 45 10V25C45 27.6522 46.0536 30.1957 47.9289 32.0711C49.8043 33.9464 52.3478 35 55 35H70C72.6522 35 75.1957 33.9464 77.0711 32.0711C78.9464 30.1957 80 27.6522 80 25V10C80 7.34784 78.9464 4.8043 77.0711 2.92893C75.1957 1.05357 72.6522 0 70 0L55 0ZM10 45C7.34784 45 4.8043 46.0536 2.92893 47.9289C1.05357 49.8043 0 52.3478 0 55L0 70C0 72.6522 1.05357 75.1957 2.92893 77.0711C4.8043 78.9464 7.34784 80 10 80H25C27.6522 80 30.1957 78.9464 32.0711 77.0711C33.9464 75.1957 35 72.6522 35 70V55C35 52.3478 33.9464 49.8043 32.0711 47.9289C30.1957 46.0536 27.6522 45 25 45H10ZM45 55C45 52.3478 46.0536 49.8043 47.9289 47.9289C49.8043 46.0536 52.3478 45 55 45H70C72.6522 45 75.1957 46.0536 77.0711 47.9289C78.9464 49.8043 80 52.3478 80 55V70C80 72.6522 78.9464 75.1957 77.0711 77.0711C75.1957 78.9464 72.6522 80 70 80H55C52.3478 80 49.8043 78.9464 47.9289 77.0711C46.0536 75.1957 45 72.6522 45 70V55ZM0 10C0 7.34784 1.05357 4.8043 2.92893 2.92893C4.8043 1.05357 7.34784 0 10 0L25 0C27.6522 0 30.1957 1.05357 32.0711 2.92893C33.9464 4.8043 35 7.34784 35 10V25C35 27.6522 33.9464 30.1957 32.0711 32.0711C30.1957 33.9464 27.6522 35 25 35H10C7.34784 35 4.8043 33.9464 2.92893 32.0711C1.05357 30.1957 0 27.6522 0 25V10ZM26.77 14.27C27.0024 14.0376 27.1868 13.7616 27.3126 13.4579C27.4384 13.1542 27.5032 12.8287 27.5032 12.5C27.5032 12.1713 27.4384 11.8458 27.3126 11.5421C27.1868 11.2384 27.0024 10.9624 26.77 10.73C26.5376 10.4976 26.2616 10.3132 25.9579 10.1874C25.6542 10.0616 25.3287 9.99684 25 9.99684C24.6713 9.99684 24.3458 10.0616 24.0421 10.1874C23.7384 10.3132 23.4624 10.4976 23.23 10.73L15 18.965L11.77 15.73C11.5376 15.4976 11.2616 15.3132 10.9579 15.1874C10.6542 15.0616 10.3287 14.9968 10 14.9968C9.67128 14.9968 9.34578 15.0616 9.04208 15.1874C8.73839 15.3132 8.46244 15.4976 8.23 15.73C7.99756 15.9624 7.81318 16.2384 7.68738 16.5421C7.56159 16.8458 7.49684 17.1713 7.49684 17.5C7.49684 17.8287 7.56159 18.1542 7.68738 18.4579C7.81318 18.7616 7.99756 19.0376 8.23 19.27L13.23 24.27C13.4622 24.5028 13.7381 24.6875 14.0418 24.8136C14.3456 24.9396 14.6712 25.0045 15 25.0045C15.3288 25.0045 15.6544 24.9396 15.9582 24.8136C16.2619 24.6875 16.5378 24.5028 16.77 24.27L26.77 14.27Z" fill="#023047"/>
</svg>
