<svg width="21" height="22" viewBox="0 0 21 22" fill="none" xmlns="http://www.w3.org/2000/svg">
<path fill-rule="evenodd" clip-rule="evenodd" d="M10.512 13.6962L17.584 20.6964C17.9593 21.0678 18.4683 21.2765 18.999 21.2765C19.5297 21.2765 20.0386 21.0678 20.4139 20.6964C20.7892 20.3249 21 19.8211 21 19.2958C21 18.7705 20.7892 18.2667 20.4139 17.8952L13.3392 10.8951L20.4126 3.89494C20.5983 3.71101 20.7456 3.49268 20.8461 3.2524C20.9466 3.01213 20.9983 2.75462 20.9982 2.49457C20.9981 2.23453 20.9463 1.97704 20.8457 1.73681C20.7451 1.49658 20.5977 1.27832 20.4119 1.09448C20.2261 0.910643 20.0055 0.764832 19.7628 0.665374C19.52 0.565915 19.2599 0.514755 18.9972 0.514817C18.7344 0.514878 18.4743 0.566158 18.2316 0.66573C17.9889 0.765302 17.7684 0.911216 17.5827 1.09514L10.512 8.09529L3.4399 1.09514C3.25546 0.905941 3.0348 0.754995 2.79079 0.65111C2.54679 0.547225 2.28432 0.492481 2.01871 0.490073C1.7531 0.487666 1.48967 0.537642 1.24378 0.637086C0.997896 0.73653 0.774479 0.88345 0.586569 1.06927C0.398659 1.2551 0.250018 1.47611 0.149321 1.7194C0.0486234 1.96269 -0.0021145 2.2234 6.75023e-05 2.48631C0.0022495 2.74922 0.0573075 3.00907 0.162029 3.25069C0.266751 3.49231 0.41904 3.71087 0.610009 3.89362L7.68474 10.8951L0.611343 17.8966C0.420374 18.0793 0.268086 18.2979 0.163364 18.5395C0.0586416 18.7811 0.003583 19.041 0.001401 19.3039C-0.000780998 19.5668 0.0499569 19.8275 0.150654 20.0708C0.251352 20.3141 0.399992 20.5351 0.587902 20.7209C0.775812 20.9067 0.999229 21.0536 1.24512 21.1531C1.491 21.2525 1.75444 21.3025 2.02005 21.3001C2.28566 21.2977 2.54812 21.2429 2.79213 21.1391C3.03613 21.0352 3.25679 20.8842 3.44123 20.695L10.512 13.6962Z" fill="#023047"/>
</svg>
